<?xml version="1.0" encoding="UTF-8" standalone="no"?>
<!-- Created with Inkscape (http://www.inkscape.org/) -->

<svg
   width="1024mm"
   height="1024mm"
   viewBox="0 0 1024 1024"
   version="1.1"
   id="svg5"
   inkscape:version="1.1.1 (c3084ef, 2021-09-22)"
   sodipodi:docname="logo.svg"
   xmlns:inkscape="http://www.inkscape.org/namespaces/inkscape"
   xmlns:sodipodi="http://sodipodi.sourceforge.net/DTD/sodipodi-0.dtd"
   xmlns="http://www.w3.org/2000/svg"
   xmlns:svg="http://www.w3.org/2000/svg">
  <sodipodi:namedview
     id="namedview7"
     pagecolor="#ffffff"
     bordercolor="#666666"
     borderopacity="1.0"
     inkscape:pageshadow="2"
     inkscape:pageopacity="0.0"
     inkscape:pagecheckerboard="0"
     inkscape:document-units="mm"
     showgrid="false"
     width="1024mm"
     inkscape:snap-global="false"
     inkscape:zoom="0.122715"
     inkscape:cx="313.73508"
     inkscape:cy="2077.9856"
     inkscape:window-width="1920"
     inkscape:window-height="948"
     inkscape:window-x="1440"
     inkscape:window-y="25"
     inkscape:window-maximized="0"
     inkscape:current-layer="layer1"
     fit-margin-top="0"
     fit-margin-left="0"
     fit-margin-right="0"
     fit-margin-bottom="0" />
  <defs
     id="defs2">
    <inkscape:path-effect
       effect="bspline"
       id="path-effect10590"
       is_visible="true"
       lpeversion="1"
       weight="33.333333"
       steps="2"
       helper_size="0"
       apply_no_weight="true"
       apply_with_weight="true"
       only_selected="false" />
    <inkscape:path-effect
       effect="bspline"
       id="path-effect8919"
       is_visible="true"
       lpeversion="1"
       weight="33.333333"
       steps="2"
       helper_size="0"
       apply_no_weight="true"
       apply_with_weight="true"
       only_selected="false" />
    <inkscape:path-effect
       effect="bspline"
       id="path-effect8740"
       is_visible="true"
       lpeversion="1"
       weight="33.333333"
       steps="2"
       helper_size="0"
       apply_no_weight="true"
       apply_with_weight="true"
       only_selected="false" />
    <inkscape:path-effect
       effect="bspline"
       id="path-effect7203"
       is_visible="true"
       lpeversion="1"
       weight="33.333333"
       steps="2"
       helper_size="0"
       apply_no_weight="true"
       apply_with_weight="true"
       only_selected="false" />
    <inkscape:path-effect
       effect="bspline"
       id="path-effect5580"
       is_visible="true"
       lpeversion="1"
       weight="33.333333"
       steps="2"
       helper_size="0"
       apply_no_weight="true"
       apply_with_weight="true"
       only_selected="false" />
    <inkscape:path-effect
       effect="bspline"
       id="path-effect3441"
       is_visible="true"
       lpeversion="1"
       weight="33.333333"
       steps="2"
       helper_size="0"
       apply_no_weight="true"
       apply_with_weight="true"
       only_selected="false" />
    <inkscape:path-effect
       effect="bspline"
       id="path-effect2399"
       is_visible="true"
       lpeversion="1"
       weight="33.333333"
       steps="2"
       helper_size="0"
       apply_no_weight="true"
       apply_with_weight="true"
       only_selected="false" />
    <inkscape:path-effect
       effect="bspline"
       id="path-effect1675"
       is_visible="true"
       lpeversion="1"
       weight="33.333333"
       steps="2"
       helper_size="0"
       apply_no_weight="true"
       apply_with_weight="true"
       only_selected="false" />
    <inkscape:path-effect
       effect="bspline"
       id="path-effect1152"
       is_visible="true"
       lpeversion="1"
       weight="33.333333"
       steps="2"
       helper_size="0"
       apply_no_weight="true"
       apply_with_weight="true"
       only_selected="false" />
    <inkscape:path-effect
       effect="bspline"
       id="path-effect981"
       is_visible="true"
       lpeversion="1"
       weight="33.333333"
       steps="2"
       helper_size="0"
       apply_no_weight="true"
       apply_with_weight="true"
       only_selected="false" />
  </defs>
  <g
     inkscape:label="Layer 1"
     inkscape:groupmode="layer"
     id="layer1"
     transform="translate(2.1560798,2.1560798)">
    <rect
       style="fill:#ff8e3c;fill-opacity:1;stroke-width:0.298393"
       id="rect846"
       width="1024"
       height="1024"
       x="-2.1560798"
       y="-2.1560798"
       inkscape:export-filename="/Users/Yuya/Desktop/portfolio/git/frontend/src/assets/logo.png"
       inkscape:export-xdpi="96"
       inkscape:export-ydpi="96" />
    <g
       id="g8802"
       transform="translate(43.121597,60.370236)"
       inkscape:export-filename="/Users/Yuya/Desktop/portfolio/git/frontend/src/assets/logo.png"
       inkscape:export-xdpi="96"
       inkscape:export-ydpi="96">
      <g
         id="g5463"
         transform="translate(-106.41311,204.91381)"
         style="fill:#ffffee;fill-opacity:1">
        <path
           id="path1150"
           style="fill:#ffffee;fill-opacity:1;stroke:none;stroke-width:0.264583px;stroke-linecap:butt;stroke-linejoin:miter;stroke-opacity:1"
           d="m 620.60204,23.194674 c -14.17442,-0.0216 -29.47633,3.52076 -45.64735,13.45912 -34.49814,21.20188 -72.94689,71.508356 -94.14874,130.801846 -21.20188,59.29347 -25.15439,127.56668 -10.6004,167.4549 14.55401,39.88818 47.61322,51.38705 76.00156,57.13655 28.38836,5.74948 52.10503,5.7498 74.38461,-6.64765 22.27958,-12.39745 43.12118,-37.19214 60.01081,-67.37781 16.88962,-30.18566 29.8255,-65.75936 36.2939,-108.88171 6.4684,-43.1224 6.46858,-93.78831 -2.33527,-124.692636 -8.80382,-30.90437 -26.41147,-42.04404 -50.48787,-51.5669 -12.79059,-5.05902 -27.40689,-9.66128 -43.47125,-9.68571 z m -2.92127,57.22234 c 1.62418,0.018 3.25361,0.10472 4.88757,0.25633 17.42874,1.61719 35.39551,10.60069 44.3792,28.748116 8.98369,18.14742 8.9835,45.45679 4.31189,75.10343 -4.67162,29.64661 -14.0145,61.62693 -26.23251,88.39872 -12.21804,26.77178 -27.30984,48.33173 -44.73837,59.29199 -17.4285,10.96028 -37.19227,11.31966 -51.92551,4.49222 -14.73322,-6.82741 -24.43501,-20.84136 -27.30995,-47.79293 -2.87496,-26.95157 1.07754,-66.8375 10.60037,-102.05423 9.52289,-35.21676 24.61496,-65.7601 40.60632,-83.90755 14.49218,-16.446126 29.72083,-22.709876 45.42099,-22.536096 z" />
        <path
           style="fill:#ffffee;fill-opacity:1;stroke:none;stroke-width:0.264583px;stroke-linecap:butt;stroke-linejoin:miter;stroke-opacity:1"
           d="m 519.61534,304.18711 c 9.70221,-28.20881 36.65321,-75.64257 55.87235,-116.14202 19.21914,-40.49946 30.70597,-74.06337 44.36144,-91.851138 13.65547,-17.787771 29.47844,-19.798485 40.98364,-17.389857 11.5052,2.408628 18.69186,9.235951 20.84782,17.501042 2.15596,8.265093 -0.71872,17.967093 -5.92933,28.747623 -5.21062,10.78054 -12.75677,22.63878 -30.18535,55.33987 -17.42858,32.70108 -44.73839,86.24267 -66.47896,118.04487 -21.74057,31.8022 -37.91084,41.86371 -49.76927,42.4028 -11.85843,0.5391 -19.40456,-8.44438 -9.70234,-36.65319 z"
           id="path2397"
           inkscape:path-effect="#path-effect2399"
           inkscape:original-d="m 502.3666,323.41197 c 26.95126,-47.43349 53.90226,-94.86725 80.853,-142.30127 11.48755,-33.56496 22.97437,-67.12887 34.46117,-100.693696 15.82387,-2.01054 31.64684,-4.02124 47.46985,-6.03226 7.18734,6.82799 14.374,13.65531 21.56082,20.48277 -2.87458,9.702806 -5.74925,19.404806 -8.62435,29.107066 -7.54614,11.85891 -15.09229,23.71716 -22.63882,35.57533 -27.31063,53.54396 -54.62043,107.08555 -81.93104,160.62793 -16.17065,10.06218 -32.34093,20.12368 -48.51179,30.18512 -7.54617,-8.98358 -15.09229,-17.96706 -22.63884,-26.95099 z"
           sodipodi:nodetypes="cccccccccc" />
      </g>
      <g
         id="g8736"
         transform="translate(-129.3648,195.12523)">
        <path
           id="path8732"
           style="fill:#d9376e;fill-opacity:1;stroke:none;stroke-width:0.264583px;stroke-linecap:butt;stroke-linejoin:miter;stroke-opacity:1"
           d="m 620.60204,23.194674 c -14.17442,-0.0216 -29.47633,3.52076 -45.64735,13.45912 -34.49814,21.20188 -72.94689,71.508356 -94.14874,130.801846 -21.20188,59.29347 -25.15439,127.56668 -10.6004,167.4549 14.55401,39.88818 47.61322,51.38705 76.00156,57.13655 28.38836,5.74948 52.10503,5.7498 74.38461,-6.64765 22.27958,-12.39745 43.12118,-37.19214 60.01081,-67.37781 16.88962,-30.18566 29.8255,-65.75936 36.2939,-108.88171 6.4684,-43.1224 6.46858,-93.78831 -2.33527,-124.692636 -8.80382,-30.90437 -26.41147,-42.04404 -50.48787,-51.5669 -12.79059,-5.05902 -27.40689,-9.66128 -43.47125,-9.68571 z m -2.92127,57.22234 c 1.62418,0.018 3.25361,0.10472 4.88757,0.25633 17.42874,1.61719 35.39551,10.60069 44.3792,28.748116 8.98369,18.14742 8.9835,45.45679 4.31189,75.10343 -4.67162,29.64661 -14.0145,61.62693 -26.23251,88.39872 -12.21804,26.77178 -27.30984,48.33173 -44.73837,59.29199 -17.4285,10.96028 -37.19227,11.31966 -51.92551,4.49222 -14.73322,-6.82741 -24.43501,-20.84136 -27.30995,-47.79293 -2.87496,-26.95157 1.07754,-66.8375 10.60037,-102.05423 9.52289,-35.21676 24.61496,-65.7601 40.60632,-83.90755 14.49218,-16.446126 29.72083,-22.709876 45.42099,-22.536096 z" />
        <path
           style="fill:#d9376e;fill-opacity:1;stroke:none;stroke-width:0.264583px;stroke-linecap:butt;stroke-linejoin:miter;stroke-opacity:1"
           d="m 519.61534,304.18711 c 9.70221,-28.20881 36.65321,-75.64257 55.87235,-116.14202 19.21914,-40.49946 30.70597,-74.06337 44.36144,-91.851138 13.65547,-17.787771 29.47844,-19.798485 40.98364,-17.389857 11.5052,2.408628 18.69186,9.235951 20.84782,17.501042 2.15596,8.265093 -0.71872,17.967093 -5.92933,28.747623 -5.21062,10.78054 -12.75677,22.63878 -30.18535,55.33987 -17.42858,32.70108 -44.73839,86.24267 -66.47896,118.04487 -21.74057,31.8022 -37.91084,41.86371 -49.76927,42.4028 -11.85843,0.5391 -19.40456,-8.44438 -9.70234,-36.65319 z"
           id="path8734"
           inkscape:path-effect="#path-effect8740"
           inkscape:original-d="m 502.3666,323.41197 c 26.95126,-47.43349 53.90226,-94.86725 80.853,-142.30127 11.48755,-33.56496 22.97437,-67.12887 34.46117,-100.693696 15.82387,-2.01054 31.64684,-4.02124 47.46985,-6.03226 7.18734,6.82799 14.374,13.65531 21.56082,20.48277 -2.87458,9.702806 -5.74925,19.404806 -8.62435,29.107066 -7.54614,11.85891 -15.09229,23.71716 -22.63882,35.57533 -27.31063,53.54396 -54.62043,107.08555 -81.93104,160.62793 -16.17065,10.06218 -32.34093,20.12368 -48.51179,30.18512 -7.54617,-8.98358 -15.09229,-17.96706 -22.63884,-26.95099 z"
           sodipodi:nodetypes="cccccccccc" />
      </g>
    </g>
    <g
       id="g10814"
       transform="translate(-28.029038,-56.058076)"
       inkscape:export-filename="/Users/Yuya/Desktop/portfolio/git/frontend/src/assets/logo.png"
       inkscape:export-xdpi="96"
       inkscape:export-ydpi="96">
      <path
         style="fill:#fffffe;fill-opacity:1;stroke:none;stroke-width:0.264583px;stroke-linecap:butt;stroke-linejoin:miter;stroke-opacity:1"
         d="m 160.26872,872.49392 c -7.90575,-74.74411 -6.46839,-204.10631 -5.03097,-329.5208 1.43741,-125.41449 2.87474,-246.8688 22.99867,-310.47457 20.12393,-63.60577 58.93258,-69.3552 86.96184,-70.0738 28.02926,-0.7186 45.27755,3.59348 51.74558,66.12109 6.46804,62.52762 2.15605,183.26328 0.71864,295.02231 -1.4374,111.75902 -8e-5,214.52805 38.45092,266.63423 38.45099,52.10617 113.91079,53.54351 193.68731,52.10608 79.77651,-1.43742 163.86029,-5.74941 207.34197,-56.05881 43.48169,-50.3094 46.35641,-146.61238 45.99707,-258.00982 -0.35934,-111.39744 -3.95273,-237.88496 7.90607,-300.772 11.85881,-62.88705 39.16806,-62.16838 68.27571,-62.16839 29.10765,0 60.01023,-0.71867 74.38426,84.08897 14.37402,84.80764 12.21802,255.13109 8.98382,381.98301 -3.23419,126.85192 -7.54618,210.217 -21.20161,261.96381 -13.65542,51.74681 -36.65269,71.86943 -161.34834,82.29069 -124.69566,10.42127 -351.07498,11.13993 -472.89594,1.43752 -121.82096,-9.70241 -139.06925,-29.82541 -146.975,-104.56952 z"
         id="path10586"
         inkscape:path-effect="#path-effect10590"
         inkscape:original-d="m 150.92559,927.11434 c 1.43765,-129.36453 2.87501,-258.72673 4.31216,-388.09438 1.43768,-121.46133 2.87501,-242.91564 4.31216,-364.37749 38.81048,-5.7494 77.61913,-11.49883 116.42831,-17.24864 17.24925,4.31251 34.49754,8.62458 51.74591,12.93648 -4.31198,120.74316 -8.62396,241.47882 -12.93647,362.22142 1.43768,102.77544 2.87501,205.54447 4.31215,308.3194 75.46458,1.43768 150.92438,2.87501 226.38839,4.31217 84.08903,-4.31198 168.17281,-8.62397 252.26134,-12.93648 2.8751,-96.30656 5.74982,-192.60954 8.62433,-288.9147 -3.5932,-126.48974 -7.1866,-252.97726 -10.7804,-379.47005 27.31115,0.71897 54.6204,1.43764 81.93102,2.15608 30.9047,-0.71844 61.80728,-1.43711 92.71145,-2.15608 -2.15586,170.33398 -4.31186,340.65743 -6.46826,510.99091 -4.31198,83.37037 -8.62398,166.73545 -12.93649,250.10526 -22.99837,20.12408 -45.99563,40.2467 -68.99453,60.37025 -226.39266,0.71897 -452.77198,1.43762 -679.16516,2.15606 -17.24872,-20.12354 -34.49701,-40.24654 -51.74591,-60.37021 z"
         sodipodi:nodetypes="cccccccccccccccccc" />
      <path
         style="fill:#d9376e;fill-opacity:1;stroke:none;stroke-width:0.264583px;stroke-linecap:butt;stroke-linejoin:miter;stroke-opacity:1"
         d="m 130.0836,842.3088 c -7.90575,-74.74411 -6.46839,-204.10631 -5.03097,-329.5208 1.43741,-125.41449 2.87474,-246.8688 22.99867,-310.47457 20.12393,-63.60577 58.93258,-69.3552 86.96184,-70.0738 28.02926,-0.7186 45.27755,3.59348 51.74558,66.12109 6.46804,62.52762 2.15605,183.26328 0.71864,295.02231 -1.4374,111.75902 -8e-5,214.52805 38.45092,266.63423 38.45099,52.10617 113.91079,53.54351 193.68731,52.10608 79.77651,-1.43742 163.86029,-5.74941 207.34197,-56.05881 43.48169,-50.3094 46.35641,-146.61238 45.99707,-258.00982 -0.35934,-111.39744 -3.95273,-237.88496 7.90607,-300.772 11.85881,-62.88705 39.16806,-62.16838 68.27571,-62.16839 29.10765,0 60.01023,-0.71867 74.38426,84.08897 14.37402,84.80764 12.21802,255.13109 8.98382,381.98301 -3.23419,126.85192 -7.54618,210.217 -21.20161,261.96381 -13.65542,51.74681 -36.65269,71.86943 -161.34834,82.29069 C 625.25888,955.86207 398.87956,956.58073 277.0586,946.87832 155.23764,937.17591 137.98935,917.05291 130.0836,842.3088 Z"
         id="path8917"
         inkscape:path-effect="#path-effect8919"
         inkscape:original-d="m 120.74047,896.92922 c 1.43765,-129.36453 2.87501,-258.72673 4.31216,-388.09438 1.43768,-121.46133 2.87501,-242.91564 4.31216,-364.37749 38.81048,-5.7494 77.61913,-11.49883 116.42831,-17.24864 17.24925,4.31251 34.49754,8.62458 51.74591,12.93648 -4.31198,120.74316 -8.62396,241.47882 -12.93647,362.22142 1.43768,102.77544 2.87501,205.54447 4.31215,308.3194 75.46458,1.43768 150.92438,2.87501 226.38839,4.31217 84.08903,-4.31198 168.17281,-8.62397 252.26134,-12.93648 2.8751,-96.30656 5.74982,-192.60954 8.62433,-288.9147 -3.5932,-126.48974 -7.1866,-252.97726 -10.7804,-379.47005 27.31115,0.71897 54.6204,1.43764 81.93102,2.15608 30.9047,-0.71844 61.80728,-1.43711 92.71145,-2.15608 -2.15586,170.33398 -4.31186,340.65743 -6.46826,510.99091 -4.31198,83.37037 -8.62398,166.73545 -12.93649,250.10526 -22.99837,20.12408 -45.99563,40.2467 -68.99453,60.37025 -226.39266,0.71897 -452.77198,1.43762 -679.16516,2.15606 -17.24872,-20.12354 -34.49701,-40.24654 -51.74591,-60.37021 z"
         sodipodi:nodetypes="cccccccccccccccccc" />
    </g>
  </g>
</svg>
