<?xml version="1.0" standalone="no"?>
<!DOCTYPE svg PUBLIC "-//W3C//DTD SVG 20010904//EN"
 "http://www.w3.org/TR/2001/REC-SVG-20010904/DTD/svg10.dtd">
<svg version="1.0" xmlns="http://www.w3.org/2000/svg"
 width="700.000000pt" height="700.000000pt" viewBox="0 0 700.000000 700.000000"
 preserveAspectRatio="xMidYMid meet">
<metadata>
Created by potrace 1.14, written by Peter Selinger 2001-2017
</metadata>
<g transform="translate(0.000000,700.000000) scale(0.100000,-0.100000)"
fill="#000000" stroke="none">
<path d="M1291 6455 c-154 -28 -289 -125 -371 -265 -141 -244 -199 -612 -232
-1470 -17 -461 -17 -2650 0 -2880 34 -448 74 -599 189 -717 109 -112 337 -178
748 -217 782 -74 2411 -74 3305 0 685 56 945 153 1060 396 130 273 178 763
211 2153 13 527 7 1639 -10 1875 -32 445 -68 668 -142 859 -43 112 -96 176
-182 220 -63 33 -73 34 -195 39 -210 7 -301 -17 -378 -100 -109 -118 -160
-342 -184 -798 -5 -107 -10 -622 -10 -1145 0 -522 -5 -1026 -10 -1120 -53
-887 -257 -1228 -825 -1375 -224 -58 -437 -78 -900 -87 -579 -10 -818 23
-1074 149 -68 34 -104 60 -172 128 -75 75 -92 99 -142 200 -99 202 -150 442
-177 830 -13 192 -13 926 0 1660 10 568 2 1058 -20 1240 -15 120 -46 262 -66
303 -29 56 -85 107 -138 122 -60 18 -185 18 -285 0z"/>
<path d="M3493 5056 c-338 -112 -705 -613 -842 -1149 -48 -185 -63 -292 -68
-485 -6 -205 5 -322 43 -442 50 -160 153 -280 299 -350 152 -73 459 -113 602
-79 109 26 192 77 304 189 335 333 524 874 522 1495 -2 505 -104 688 -453 806
-82 28 -112 33 -215 36 -106 3 -129 0 -192 -21z m255 -380 c3 -4 -20 -29 -50
-56 -64 -57 -117 -153 -233 -420 -37 -85 -135 -294 -219 -465 -84 -170 -175
-358 -202 -418 l-49 -107 -8 52 c-5 29 -6 116 -4 193 22 594 275 1139 566
1222 44 12 186 11 199 -1z m282 -560 c-6 -71 -13 -133 -16 -137 -2 -4 -13 -51
-24 -104 -88 -428 -279 -795 -474 -909 -84 -49 -214 -69 -296 -46 -65 19 -64
21 23 110 134 138 225 283 512 821 86 162 182 339 213 394 l57 100 7 -50 c5
-28 3 -108 -2 -179z"/>
</g>
</svg>
